<?xml version="1.0" encoding="utf-8"?>
<!-- Generator: Adobe Illustrator 24.1.3, SVG Export Plug-In . SVG Version: 6.00 Build 0)  -->
<svg version="1.1" id="Layer_1" xmlns="http://www.w3.org/2000/svg" xmlns:xlink="http://www.w3.org/1999/xlink" x="0px" y="0px"
	 viewBox="0 0 3848.94 1154.85" style="enable-background:new 0 0 3848.94 1154.85;" xml:space="preserve">
<style type="text/css">
	.st0{fill:#017BFF;}
	.st1{fill:#FFFFFF;}
</style>
<g>
	<path class="st0" d="M1106.33,585.46c0,93.2-0.07,186.4,0.02,279.59c0.06,65.87-20.96,124.12-63.93,173.98
		c-39.87,46.28-90.2,75.09-150.41,86.38c-16.5,3.09-33.13,4.36-49.92,4.36c-184.79-0.06-369.58-0.09-554.36-0.01
		c-69.08,0.03-129.42-22.83-180.14-69.53c-43.49-40.04-70.19-89.71-80.5-148.01c-2.92-16.52-4.02-33.19-4.02-49.95
		c0.01-186.4-0.29-372.79,0.11-559.19c0.27-124.58,85.25-224.46,194.29-253.31c22.61-5.98,45.59-8.85,68.95-8.85
		c185.54-0.02,371.08-0.15,556.62,0.06c73.59,0.08,136.75,26.32,188.38,78.73c39.76,40.35,63.68,88.97,72.09,145.11
		c2.08,13.88,2.87,27.79,2.86,41.8C1106.3,399.56,1106.33,492.51,1106.33,585.46z M429.63,481.34c0-85.45,0-170.9,0.01-256.34
		c0-5-0.06-10,0.14-14.99c0.61-15.39,7.33-23.97,22.02-28.32c1.67-0.5,3.38-0.89,5.08-1.27c12.02-2.72,24.27-3.02,36.5-3.51
		c22.24-0.89,44.46-1.03,66.67,0.93c12.31,1.09,23.85,5.2,35.6,8.58c23.64,6.8,45.18,17.49,63.49,34.04
		c15.78,14.27,28.74,30.65,34.96,51.4c2.94,9.8,5.28,19.77,7.68,29.72c2.2,9.11,2.36,18.47,0.52,27.54
		c-3.64,17.91-8.66,35.42-18.71,51.05c-1.47,2.29-2.58,4.84-3.68,7.35c-1.97,4.47-0.66,8.35,2.68,11.56
		c1.6,1.54,3.49,2.87,5.43,3.96c11.42,6.38,23.5,11.01,36.35,13.58c2.73,0.55,5.48,0.79,8.2,0.49c16.95-1.88,31.28-8.58,40.89-23.26
		c9.86-15.07,16.17-31.59,18-49.5c1.35-13.16,1.1-26.43,0.52-39.67c-0.28-6.52-0.92-12.95-2.64-19.25
		c-12.64-46.3-40.38-80.79-82.12-104.08c-32.77-18.28-69.21-24.43-105.6-28.63c-28.7-3.31-57.85-2.99-86.86-2.88
		c-65.01,0.26-130.02-0.01-195.03,0.1c-20.49,0.03-41-0.65-61.48,0.81c-1.98,0.14-3.99,0.35-5.9,0.87
		c-1.94,0.52-3.98,1.44-4.08,3.81c-0.1,2.42,1.89,3.34,3.85,3.94c3.12,0.96,6.34,1.34,9.62,1.3c13.28-0.19,25.61,3.37,37.56,8.97
		c16.36,7.67,26.15,20.39,30.08,37.8c3.33,14.74,3.01,29.77,3.01,44.74c0.05,163.65,0.03,327.3,0.04,490.95
		c0,10.99-0.22,21.97-1.63,32.89c-2.5,19.44-12.22,34.3-29.47,43.48c-11.96,6.36-24.86,10.44-38.71,10.53
		c-3.49,0.02-6.99,0.31-10.35,1.48c-1.78,0.62-3.24,1.72-3.4,3.61c-0.17,2.01,1.35,3.14,3.1,3.73c1.65,0.55,3.35,1.22,5.05,1.27
		c14.48,0.42,28.98,1.27,43.43,0.85c11.23-0.33,22.45-1.09,33.69-1.05c33.5,0.11,67,0.23,100.5,0.32c2.5,0.01,5.01-0.03,7.48-0.35
		c7.09-0.94,9.19-4.04,7.18-10.76c-0.86-2.85-2.07-5.62-3.35-8.32c-11.19-23.73-15.49-49.21-15.95-74.92
		c-0.97-55.19-0.36-110.4-0.39-165.6C429.61,547.3,429.63,514.32,429.63,481.34z M890.09,556.16c0.06,0,0.11,0,0.17,0
		c0-29.48,0.02-58.96-0.02-88.44c0-3.49-0.02-7.02-0.53-10.46c-0.63-4.33-2.15-8.43-7.12-9.53c-4.96-1.1-8.02,2.05-10.57,5.57
		c-1.75,2.41-3.06,5.14-4.53,7.75c-7.18,12.68-18.99,16.93-32.38,15.72c-14.92-1.34-29.4-5.4-43.57-10.55
		c-23.75-8.63-48.37-14.21-73.12-19.02c-12.25-2.39-24.88-1.99-37.31-3.03c-19.08-1.59-38.02-0.24-56.78,2.56
		c-28.75,4.28-54.35,17.14-77.83,33.42c-19.71,13.68-37.6,29.88-48.9,51.87c-0.45,0.88-1.04,1.71-1.6,2.53
		c-14.15,20.85-19.28,44.74-23.03,69.02c-2.18,14.14-1.75,28.48,0.24,42.57c2.61,18.52,6.29,36.78,14.57,53.97
		c10.71,22.24,25.6,40.97,44,57.19c6,5.29,11.89,10.72,18.75,14.89c20.05,12.2,39.19,25.78,59.61,37.47
		c16.91,9.67,33.87,19.27,51.1,28.28c31.49,16.48,62.07,34.29,90.79,55.28c16.09,11.76,30.02,25.63,42.11,41.32
		c10.66,13.83,16.68,29.41,16.15,47.22c-0.48,16.41-4.86,31.44-14.52,44.88c-4.96,6.89-9.8,13.89-14.24,21.12
		c-3.13,5.11-1.43,8.1,4.52,8.51c5.73,0.39,11.48,0.26,17.19-0.73c9.7-1.67,18.72-5.36,27.65-9.24
		c35.5-15.42,54.86-42.85,59.31-80.94c2.59-22.15-0.39-43.72-7.14-65c-5.71-18-15.23-33.6-27.58-47.54
		c-10.13-11.43-21.92-21.15-34.13-30.31c-21.82-16.35-44.95-30.71-68.26-44.82c-47-28.46-93.96-56.98-140.94-85.47
		c-5.78-3.51-11.37-7.27-16.24-12.01c-15.12-14.73-27.94-30.7-36.17-50.77c-7.91-19.27-8.96-38.31-4.53-57.86
		c4.33-19.16,14.24-35.33,28.52-49.18c13.43-13.03,28.78-22.39,46.48-27.77c20.2-6.13,40.87-8.92,62.12-7.83
		c25.97,1.34,51.09,5.59,74.43,17.74c13.78,7.17,26.66,15.76,39.45,24.5c6.84,4.68,12.94,10.26,17.95,16.89
		c5.73,7.57,11.31,15.24,16.87,22.94c3.22,4.46,6.03,9.21,8.2,14.27c9.18,21.38,16.42,43.39,21.5,66.1
		c0.87,3.91,1.72,7.82,3.63,11.37c1.61,3,3.96,5.36,7.64,5.11c3.75-0.26,5.55-3,6.63-6.28c1.51-4.59,1.49-9.35,1.49-14.09
		C890.1,615.62,890.09,585.89,890.09,556.16z"/>
	<path class="st1" d="M3179.94,343.73c2.75-1.09,3.54-3.05,4.76-4.54c24.02-29.09,55.05-40.54,92.33-37.94
		c64.61,4.51,106.86,56.72,111.74,114.4c2.37,27.98-0.68,54.98-13.84,80.04c-20.33,38.71-52.25,60.68-96.2,64.56
		c-18.95,1.67-37.41-0.07-55.2-7.17c-15.43-6.15-28.32-15.68-38.48-28.88c-1.16-1.51-1.89-3.51-4.11-4.3
		c-1.51,1.99-0.76,4.27-0.77,6.36c-0.08,43.48-0.1,86.95-0.13,130.43c0,1.75-0.07,3.5,0,5.25c0.09,2.26-1,3.03-3.15,3.02
		c-15.5-0.04-31.01-0.06-46.51,0.02c-2.75,0.01-3.41-1.29-3.29-3.66c0.09-1.74,0.01-3.5,0.01-5.25c0-113.44-0.01-226.88,0.02-340.32
		c0-10.64-1.26-8.87,9.21-8.96c11.25-0.1,22.51,0.09,33.76-0.08c3.46-0.05,4.8,1.07,5.23,4.56
		C3176.65,321.93,3178.32,332.52,3179.94,343.73z M3179.94,433.45c-0.19,3.13,0.6,8.56,1.31,14.02
		c4.26,32.85,28.47,62.45,65.65,66.84c44.03,5.19,74.73-20.93,84.53-53.77c4.5-15.08,5.31-30.44,2.89-45.96
		c-5.22-33.5-28.45-62.03-65.11-66.82c-39.07-5.11-68.41,14.1-82.01,45.34C3181.95,405.19,3180.04,417.96,3179.94,433.45z"/>
	<path class="st1" d="M1285.16,379.48c0-54.98,0-109.95,0-164.93c0-9.71,0-9.71,10.09-9.71c36.51,0.02,73.02,0.01,109.54,0.08
		c18.56,0.03,36.93,1.62,54.78,7.23c42.3,13.3,68.6,48.35,69.82,92.74c0.48,17.5-2.09,34.37-9.28,50.37
		c-12.95,28.78-36.22,45.01-65.81,53.26c-16.02,4.46-32.5,5.45-49.04,5.54c-20.01,0.11-40.01,0.02-60.02,0.03
		c-7.41,0.01-6.69-0.62-6.69,6.96c-0.01,40.98-0.01,81.96-0.01,122.95c0,1.5,0.01,3,0,4.5c-0.07,6.44-0.07,6.49-6.58,6.51
		c-13.25,0.03-26.51,0.03-39.76,0c-6.97-0.01-7.02-0.05-7.02-6.85c-0.02-38.48-0.01-76.97-0.01-115.45
		C1285.16,414.96,1285.16,397.22,1285.16,379.48z M1338.54,308.84c0,18.48-0.02,36.95,0.01,55.43c0.01,6.19,0.07,6.26,5.99,6.27
		c20.24,0.04,40.48,0.14,60.72-0.02c10.75-0.09,21.45-0.93,31.87-3.98c18.26-5.34,30.05-17.14,35.34-35.36
		c4.14-14.26,4.04-28.59,0.06-42.85c-5.17-18.54-16.93-30.63-35.62-35.92c-9.46-2.68-19.12-3.84-28.86-3.93
		c-21.24-0.21-42.48-0.08-63.72-0.04c-5.67,0.01-5.76,0.09-5.77,5.71C1338.52,272.39,1338.54,290.61,1338.54,308.84z"/>
	<path class="st1" d="M1684.18,560.96c-60.61,0.1-108.52-36.08-122.16-92.99c-9.67-40.35-6-79.57,18.39-114.71
		c21.32-30.7,51.17-47.57,88.33-51.37c35.66-3.65,68.07,4.52,95.74,27.93c24.3,20.55,38.16,47.06,42.45,78.51
		c3.46,25.38,2.3,50.54-7.54,74.42c-19.12,46.42-54.11,72.15-104.09,77.43C1691.08,560.61,1686.83,560.78,1684.18,560.96z
		 M1611.68,431.24c-0.33,11.56,1.14,23.41,4.92,34.89c11.82,35.87,45.66,55.68,81.73,47.36c26.81-6.19,43.3-23.99,51.18-49.58
		c6.76-21.96,6.41-44.43,0.01-66.48c-8.82-30.42-33.9-49.98-64.02-50.76c-31.59-0.82-57.2,16.91-68.21,47.28
		C1612.99,405.84,1611.46,418.16,1611.68,431.24z"/>
	<path class="st1" d="M2888.33,664.94c19.94-43.76,39.44-86.57,59.28-130.1c-2.85-0.14-5.02-0.56-7.1-0.29
		c-5.22,0.67-7.83-1.3-9.93-6.35c-10.06-24.18-20.66-48.14-31.04-72.19c-20.36-47.18-40.7-94.37-61-141.58
		c-0.95-2.21-2.69-4.26-2.14-7.1c2.08-1.07,4.33-0.54,6.47-0.55c14.75-0.03,29.51,0.23,44.26-0.09c4.58-0.1,6.45,1.64,8.08,5.6
		c14.22,34.61,28.66,69.13,43,103.68c9.18,22.11,18.29,44.25,27.45,66.37c0.85,2.06,1.87,4.05,2.94,6.35
		c2.28-1.61,2.67-4.04,3.56-6.08c24.36-56.05,48.8-112.07,72.86-168.25c2.58-6.03,5.61-7.97,12.07-7.75
		c15.46,0.54,30.94,0.17,46.37,0.17c0.71,3.06-1.08,5.11-2.06,7.31c-51.31,114.78-102.71,229.53-153.93,344.36
		c-2.11,4.74-4.36,6.76-9.82,6.61C2921.67,664.67,2905.66,664.94,2888.33,664.94z"/>
	<path class="st1" d="M3828.32,377.39c-16.31,0-31.78-0.01-47.26,0.01c-2.23,0-3.49-0.48-4.11-3.1
		c-4.12-17.41-16.17-26.43-32.97-29.55c-10.62-1.97-21.41-1.84-31.98,0.97c-6.13,1.63-11.61,4.49-16.21,8.95
		c-9.04,8.77-12.69,27.14,4.31,36.88c10.25,5.88,21.42,9.49,32.77,12.53c18.31,4.9,36.91,8.71,54.89,14.87
		c8.07,2.76,15.77,6.19,23.01,10.72c17.08,10.66,25.39,26.25,26.3,46.1c1.61,35.18-14.71,62.72-47.62,75.46
		c-39.93,15.46-79.97,13.98-118.02-6.48c-26.22-14.1-41.56-36.65-45.6-66.26c1.07-1.98,2.74-1.47,4.13-1.48
		c14.75-0.04,29.51,0.07,44.26-0.1c3.49-0.04,5.13,0.94,6.44,4.42c8.79,23.29,26.25,34.98,50.72,36.7
		c8.49,0.6,16.98,0.34,25.35-1.67c16.41-3.94,28.5-17.73,26.71-34.66c-1.13-10.69-6.11-18.18-16.06-22.41
		c-12.94-5.5-26.52-8.72-40.19-11.65c-15.4-3.31-30.49-7.63-45.23-13.19c-8-3.01-15.35-7.13-22.37-11.99
		c-19.43-13.43-25.82-32.39-22.83-54.91c3.73-28.07,19.98-47.42,45.58-57.6c32.85-13.06,66.53-13.01,99.24,1.11
		c26.92,11.62,41.64,33.22,46.49,61.83C3828.27,374.1,3828.22,375.35,3828.32,377.39z"/>
	<path class="st1" d="M2306.16,376.49c-1.02,0.92-2.28,0.91-3.53,0.91c-14.25,0-28.5-0.07-42.75,0.04
		c-2.86,0.02-4.58-0.56-5.34-3.67c-4.19-17.11-16.18-25.86-32.63-28.99c-10.87-2.07-21.96-2.07-32.7,1.1
		c-11.11,3.28-19.82,9.44-22.62,21.58c-2,8.65,0.57,15.78,7.37,21.36c4.29,3.52,9.35,5.7,14.43,7.82
		c14.81,6.19,30.42,9.6,45.94,13.35c11.89,2.87,23.62,6.3,35.15,10.39c10.95,3.88,20.85,9.5,29.4,17.48
		c6.99,6.51,11.58,14.4,13.68,23.62c9.32,40.87-8,72.84-44.37,89.58c-14.52,6.69-30.04,9.18-45.87,9.68
		c-25.61,0.81-50.36-2.74-72.99-15.72c-23.26-13.35-38.77-32.6-44.44-59.18c-0.26-1.22-0.58-2.43-0.75-3.66
		c-0.67-4.93-0.59-5.14,4.32-5.16c14.75-0.07,29.5,0.03,44.25-0.07c2.86-0.02,4.32,0.73,5.42,3.7c9.11,24.62,27.48,36.37,53.23,37.5
		c9.54,0.42,19.02,0,28.1-3.34c16.44-6.03,24.93-21.76,20.88-38.19c-2.08-8.45-7.3-13.96-15.14-17.31
		c-12.93-5.52-26.52-8.73-40.19-11.66c-15.64-3.35-30.98-7.71-45.92-13.44c-11.8-4.53-22.35-11.02-31.32-20.01
		c-8.12-8.15-12.36-18.07-13.32-29.38c-2.9-34.26,14.18-62.15,46.18-75.33c18.88-7.78,38.69-9.41,58.86-8.1
		c12.03,0.78,23.78,2.97,35.03,7.38C2284.29,320.45,2302.03,343.78,2306.16,376.49z"/>
	<path class="st1" d="M2608.13,389.54c-1.75,0.26-2.7,0.53-3.66,0.53c-15.75,0.03-31.49-0.06-47.24,0.09
		c-3.23,0.03-4.86-0.83-5.95-4.06c-8.3-24.77-27.12-36.23-51.75-38.96c-44.84-4.97-74.94,26.35-80.33,66
		c-2.28,16.78-1.95,33.51,3.13,49.7c8.27,26.36,25.08,44.65,52.64,51.17c17.34,4.11,34.26,2.01,50.15-6.43
		c12.7-6.74,21.64-16.84,25.84-30.64c1.24-4.09,2.9-5.42,7.22-5.34c14.99,0.29,29.99,0.08,44.99,0.09c1.47,0,2.94,0.2,4.87,0.34
		c-6.73,30.56-22.91,54.12-49.12,70.71c-18.85,11.93-39.73,17.17-61.82,18c-31.73,1.19-61.02-6.19-86.26-26.13
		c-26.86-21.21-41.34-49.51-45.55-83.13c-3.38-26.96-1.21-53.47,10.26-78.43c19.46-42.34,53.04-65.56,99.1-71.1
		c20.63-2.48,40.97-0.85,60.63,5.96C2574.3,321.43,2598,348.85,2608.13,389.54z"/>
	<path class="st1" d="M3461.73,421.56c-0.01-20.73,0.02-41.46-0.02-62.19c-0.01-8.35,1.05-7.78-7.44-7.79
		c-10.25-0.01-20.5-0.13-30.74,0.06c-3.58,0.07-4.78-1.05-4.72-4.68c0.19-11.99,0.16-23.98,0.02-35.96
		c-0.04-3.33,1.28-4.28,4.43-4.24c10.75,0.13,21.5,0.03,32.24,0.06c6.75,0.02,6.08-0.03,6.67-5.92c1.76-17.38,3.8-34.73,5.43-52.11
		c0.35-3.76,1.39-5.13,5.32-5.06c12.24,0.23,24.5,0.23,36.74-0.01c3.95-0.08,5.13,1.16,5.08,5.05c-0.18,15.73-0.07,31.47-0.07,47.2
		c0,2,0.23,4.03-0.05,5.99c-0.61,4.27,1.57,5.2,5.2,4.86c1.49-0.14,3-0.02,4.5-0.02c18.25,0,36.49-0.03,54.74,0.02
		c5.63,0.01,5.7,0.1,5.73,5.79c0.05,11.24,0.06,22.48,0,33.72c-0.03,5.13-0.12,5.22-5.48,5.23c-18.75,0.04-37.49,0.02-56.24,0.02
		c-1.75,0-3.5,0.05-5.25,0c-2.16-0.06-3.24,0.87-3.15,3.09c0.05,1.25-0.01,2.5-0.01,3.75c-0.01,38.46,0,76.93-0.07,115.39
		c-0.01,5.03,0.49,9.98,1.57,14.86c2.19,9.9,8.08,16.31,18.03,18.94c6.83,1.8,13.79,2.26,20.79,2.33c7.75,0.09,15.5,0.11,23.24-0.01
		c2.83-0.05,4.02,0.83,4,3.81c-0.1,12.49-0.07,24.98-0.02,37.46c0.01,2.32-0.52,3.87-3.27,3.81c-19.96-0.48-39.99,1.36-59.85-2.12
		c-4.19-0.73-8.28-1.77-12.33-3.05c-25.24-7.96-39.21-25.36-43.26-51.2c-1.24-7.92-1.79-15.87-1.77-23.87
		C3461.76,457.03,3461.74,439.3,3461.73,421.56z"/>
	<path class="st1" d="M3333.6,799.4c10.69,17.65,12.92,34.75,7.61,52.22c-7.7,25.35-26.26,38.49-51.75,42.74
		c-12.49,2.08-24.94,1.34-37.18-1.7c-3.41-0.85-5.53-0.26-7.88,2.16c-4.28,4.42-8.85,8.54-13.69,13.15
		c6.49,4.7,13.32,6.05,20.11,7.25c13.29,2.35,26.74,3.43,40.17,4.67c9.46,0.87,18.73,2.59,27.82,5.53
		c29.63,9.61,38.2,37.47,31.15,60.94c-6.75,22.47-23.02,35.39-44.77,41.05c-24.97,6.5-50.11,5.13-74.48-3.54
		c-16.54-5.89-29.41-16.33-33.85-34.17c-5.09-20.44,0.44-37.96,16.36-52c1.85-1.64,3.72-3.25,5.9-5.15
		c-6.67-3.61-13.15-6.77-18.54-11.64c-5.4-4.88-5.74-9.41-0.73-14.54c8.55-8.75,17.16-17.43,25.84-26.23
		c-0.29-1.68-1.81-2.67-3.03-3.81c-20.7-19.41-22.87-58.39-3.23-81.46c11.07-13,25.51-19.86,42.23-21.76
		c12.45-1.41,24.94-1.38,37.12,2.4c3.15,0.98,6.42,0.84,9.67,0.84c16.99-0.03,33.99-0.03,50.98-0.06c6.53-0.01,6.99-0.81,6.73,6.26
		c-0.19,5.17,0.91,10.41-0.7,15.52c-5.19,0.44-10.38,1.05-15.58,1.29C3344.97,799.57,3340.04,799.4,3333.6,799.4z M3274.56,1006.7
		c2.75,0,5.52,0.24,8.24-0.04c12.45-1.27,23.89-4.77,32.88-14.25c10.45-11.03,12.15-35.7-10.23-44.4
		c-3.27-1.27-6.61-2.18-10.06-2.84c-12.8-2.46-26.02-1.52-38.68-4.35c-8.8-1.97-14.9,1.53-20.99,6.68
		c-15.22,12.87-19.05,41.94,7.45,53.36C3253.21,1005.17,3263.69,1007.01,3274.56,1006.7z M3315.27,833.86
		c0-19.73-9.71-31.77-29.03-35.94c-9.2-1.99-18.41-1.68-27.38,0.99c-13.65,4.06-22.09,13.16-24.41,27.35
		c-0.97,5.91-0.78,11.87,0.55,17.82c2.62,11.67,9.54,19.48,20.57,23.78c8.56,3.34,17.43,3.83,26.49,2.82
		C3303.41,868.32,3315.28,855.22,3315.27,833.86z"/>
	<path class="st1" d="M1919.24,375.59c0,56.71,0,113.42,0,170.13c0,1.75-0.09,3.5,0.02,5.25c0.16,2.76-0.81,4.1-3.82,4.08
		c-15.25-0.09-30.5-0.07-45.75-0.01c-2.95,0.01-4.02-1.29-3.84-4.09c0.11-1.74,0.02-3.5,0.02-5.24c0-113.67,0-227.34,0-341.01
		c0-0.5-0.01-1,0-1.5c0.14-8.44-1.42-8.06,7.97-8.06c13,0,26-0.03,39,0.01c6.35,0.02,6.4,0.07,6.4,6.57
		c0.01,46.72,0.01,93.43,0.01,140.15C1919.24,353.1,1919.24,364.35,1919.24,375.59z"/>
	<path class="st1" d="M2718.52,351.28c1.91-1.17,2.55-3.43,3.73-5.19c17.64-26.35,42.13-41.25,73.76-44.24
		c4.44-0.42,9.92-2.86,13.08-0.22c3.26,2.72,1.11,8.47,1.18,12.88c0.17,11.49,0.07,22.99,0.05,34.48c-0.01,7.55,0.96,7.47-7.13,7.4
		c-12.28-0.11-24.43,0.57-36.39,3.82c-26.21,7.12-40.78,24.6-46.01,50.67c-1.93,9.62-2.02,19.36-2.02,29.1
		c0,35.23,0.05,70.46,0.09,105.69c0,1.5-0.12,3.01,0.02,4.5c0.33,3.4-0.76,4.97-4.55,4.93c-14.75-0.16-29.51-0.16-44.26,0
		c-3.66,0.04-5.04-1.26-4.63-4.81c0.14-1.23,0.02-2.5,0.02-3.75c0-77.21-0.01-154.41,0.01-231.62c0-9.05-0.94-8.11,7.89-8.13
		c11.75-0.03,23.51,0.12,35.26-0.07c3.52-0.06,4.67,1.02,4.97,4.58c1.05,12.43,2.51,24.82,3.84,37.22
		C2717.51,349.41,2717.24,350.47,2718.52,351.28z"/>
	<path class="st1" d="M1885.56,878.95c-6.66,29.57-21.61,51.96-48.52,63.97c-36.6,16.33-73.92,16.11-110.06-1.68
		c-27.72-13.64-44.94-37.03-53.57-66.23c-11.03-37.34-10.54-74.65,6.13-110.38c18.83-40.37,51.69-60.93,95.84-63.52
		c20.66-1.21,40.94,1.19,59.96,10.14c27.26,12.83,43.09,34.66,49.65,63.65c0.1,0.46-0.08,0.98-0.22,2.34c-9.78,0-19.65,0-29.53,0
		c-1.42,0-2.37-0.77-2.83-2.02c-0.42-1.17-0.55-2.44-0.96-3.61c-8.36-23.56-24.5-38.4-49.26-43.15
		c-14.92-2.86-29.88-2.45-44.54,1.73c-27.39,7.81-45.15,26.08-54.06,52.55c-10.01,29.73-10.1,60.03,0.04,89.71
		c12.33,36.11,41.33,56.26,81.57,55.82c7.74-0.08,15.5-0.86,23-2.93c21.34-5.9,35.57-19.57,42.91-40.29
		c2.41-6.81,0.94-5.98,8.79-6.07C1868.11,878.88,1876.31,878.95,1885.56,878.95z"/>
	<path class="st1" d="M1918.85,863.46c-0.06-20.49,4.58-39.55,16.75-56.41c14.24-19.74,33.74-30.81,57.62-33.91
		c17.89-2.32,35.49-0.55,51.84,7.7c28.79,14.53,43.43,38.76,46.77,70.19c1.29,12.18,0.92,24.44-1.84,36.5
		c-8.67,37.9-38.41,61.76-71.91,65.75c-25.8,3.08-49.24-2.15-69.27-19.14c-17.83-15.12-26.78-35-29.27-57.97
		C1919.09,871.95,1919.07,867.69,1918.85,863.46z M1949.14,861.68c0.05,8.55,0.4,15.26,1.89,21.88
		c5.91,26.39,27.26,44.84,52.5,45.31c27.52,0.51,49.26-16.19,56.22-43.42c3.2-12.49,3.21-25.18,1.4-37.89
		c-1.18-8.23-3.87-15.96-8.06-23.16c-19.89-34.15-69.06-36.33-91.96-4.09C1951.92,833.28,1948.82,847.9,1949.14,861.68z"/>
	<path class="st1" d="M1985.73,431.08c0-38.47,0-76.94,0-115.4c0-1.75,0.07-3.5-0.01-5.24c-0.11-2.42,0.71-3.69,3.39-3.68
		c15.5,0.06,31,0.06,46.5,0c2.6-0.01,3.6,1.1,3.47,3.6c-0.09,1.74-0.01,3.5-0.01,5.24c0,76.69,0,153.37,0,230.06c0,1,0.01,2,0,3
		c-0.08,6.24-0.08,6.32-6.03,6.34c-13.75,0.05-27.5,0.05-41.25,0c-5.98-0.02-6.05-0.1-6.06-6.27c-0.02-30.97-0.01-61.95-0.01-92.92
		C1985.73,447.56,1985.73,439.32,1985.73,431.08z"/>
	<path class="st1" d="M2631.98,922.22c-4.37,3.96-7.1,8.46-10.83,12.18c-16,15.98-35.61,21.35-57.62,19.34
		c-6.72-0.61-13.35-1.96-19.64-4.53c-20.14-8.25-31.69-23.56-36.22-44.48c-1.85-8.56-2.79-17.25-2.8-26.02
		c-0.04-31.98-0.04-63.96-0.03-95.94c0-6.44,0.06-6.47,6.56-6.51c6-0.03,12.01,0.19,18-0.08c3.92-0.17,5.17,1.19,5.12,5.11
		c-0.19,14.99-0.09,29.98-0.07,44.97c0.02,17.49,0.06,34.98,0.09,52.47c0.01,7.54,1.07,14.96,3.35,22.13
		c5.39,16.92,17.44,26.4,35.15,27.87c28.1,2.34,50.3-14.25,56.18-41.86c1.73-8.13,2-16.34,2-24.59
		c-0.01-26.48-0.07-52.97-0.08-79.45c0-6.52,0.06-6.55,6.5-6.58c6.5-0.04,13,0.06,19.5-0.03c2.48-0.03,3.77,0.83,3.64,3.44
		c-0.07,1.5,0,3,0,4.5c0,52.72,0,105.43,0,158.15c0,1.5-0.08,3,0.01,4.5c0.12,2.2-0.82,3.14-3.04,3.13
		c-6.75-0.05-13.51-0.14-20.25,0.04c-3.16,0.08-3.65-1.52-3.81-4.11C2633.23,937.97,2632.57,930.1,2631.98,922.22z"/>
	<path class="st1" d="M3034.45,804.52c9.97-14.25,22.26-24.47,38.58-29.14c18.39-5.26,36.73-4.47,54.05,3.91
		c20.77,10.04,30.25,28.07,33.33,50.11c1.07,7.68,1.43,15.39,1.42,23.15c-0.05,30.22,0,60.43-0.01,90.65c0,7.18,0.86,6.72-6.93,6.73
		c-5.25,0.01-10.5,0.01-15.74,0c-8.12-0.02-7.01,0.49-7.01-7.42c0-28.97,0.08-57.94,0.07-86.9c0-7.73-0.11-15.44-1.66-23.11
		c-5.17-25.45-21.37-35.94-45.52-34.86c-24.3,1.09-42.5,17.65-47.65,42.25c-1.65,7.89-1.88,15.84-1.87,23.83
		c0.03,26.72,0.07,53.44,0.08,80.16c0,5.97-0.06,6-6.14,6.04c-6.25,0.04-12.51-0.23-18.74,0.09c-4.13,0.21-5.33-1.46-4.84-5.19
		c0.13-0.98,0.02-2,0.02-2.99c0-52.44-0.01-104.88,0.01-157.33c0-8.83-0.98-8.18,7.86-8.2c4.5-0.01,9-0.05,13.5,0.02
		c5.31,0.09,5.33,0.13,5.68,5.3C3033.45,789.24,3033.94,796.88,3034.45,804.52z"/>
	<path class="st1" d="M2163.13,804.96c5.98-9.86,13.34-17.46,22.7-23.15c23.37-14.19,58.27-12.43,79.21,4
		c12.68,9.95,19.03,23.38,22.1,38.77c1.68,8.38,2.01,16.86,2.04,25.34c0.13,31.47,0.1,62.95,0.11,94.42c0,1.71,0.37,3.51-1.02,5.56
		c-8.16,0-16.63-0.07-25.1,0.04c-2.7,0.04-3.38-1.12-3.34-3.58c0.11-6.74,0.05-13.49,0.05-20.23c0.01-24.23,0.01-48.46,0.05-72.69
		c0.01-7.52-0.61-14.96-2.21-22.31c-5.4-24.86-22.24-35.15-46.6-33.39c-25.23,1.82-43.27,20.04-47.02,46.49
		c-0.91,6.43-1.4,12.89-1.37,19.41c0.09,26.73,0.06,53.45,0.07,80.18c0,6.35,0.67,6.12-5.99,6.1c-6.5-0.02-13-0.14-19.5,0.05
		c-2.99,0.09-4.06-1.01-3.82-3.88c0.14-1.74,0.02-3.49,0.02-5.24c0-51.96,0-103.91,0-155.87c0-1-0.02-2,0-3
		c0.14-5.58,0.14-5.62,5.92-5.68c5.25-0.05,10.52,0.25,15.74-0.09c4.04-0.27,5.31,1.52,5.41,5.12c0.16,5.74,0.43,11.48,0.73,17.21
		C2161.43,800.48,2160.92,802.57,2163.13,804.96z"/>
	<path class="st1" d="M2324.38,895.74c9.61,0,18.34,0.04,27.06-0.03c2.07-0.01,3.24,0.71,3.62,2.81c0.22,1.21,0.72,2.39,1.22,3.53
		c5.58,12.91,14.87,21.76,28.66,25.29c10.59,2.71,21.33,2.79,31.88-0.14c15.22-4.22,22.84-17.98,18.71-33.18
		c-1.77-6.54-6.13-10.62-12.27-13.17c-10.2-4.23-20.91-6.63-31.65-8.92c-10.03-2.14-19.84-5-29.28-9.01
		c-3.21-1.36-6.37-2.9-9.34-4.72c-18.83-11.52-25.2-29.23-18.11-50.25c5.06-15,15.63-24.93,30.06-30.36
		c20.14-7.59,40.79-7.63,60.83,0.1c21.25,8.2,32.63,24.51,35.36,47.76c-9.01,0-17.72-0.01-26.43,0.01c-1.74,0-2.8-0.74-3.12-2.5
		c-1.68-9.13-6.43-16.2-14.56-20.71c-9.32-5.18-19.42-6.05-29.82-4.62c-4.97,0.69-9.83,1.8-14.15,4.55
		c-7.05,4.48-11.04,10.74-10.9,19.24c0.13,8.27,5.11,13.22,11.94,16.73c8.95,4.6,18.57,7.27,28.3,9.55
		c9.48,2.22,18.89,4.65,28.16,7.65c6.94,2.25,13.46,5.24,19.4,9.52c9.18,6.61,14.62,15.24,16.26,26.63
		c3.5,24.4-7.33,46.02-30.11,55.39c-29.56,12.16-58.71,10.54-85.8-7.33C2335.09,929.54,2326.97,914.66,2324.38,895.74z"/>
	<path class="st1" d="M1371.35,729.33c0-7.32,0.03-14.26-0.02-21.2c-0.01-2.23,1.01-3.14,3.17-3.05c1.5,0.06,3,0,4.5,0
		c53.49,0,106.99,0,160.48,0c1.25,0,2.5,0.06,3.75-0.01c2.77-0.16,4.09,0.82,3.98,3.86c-0.19,4.99,0.01,9.99-0.06,14.98
		c-0.07,5.26-0.12,5.37-5.35,5.39c-19.75,0.05-39.49,0.02-59.24,0.02c-1.75,0-3.5,0.09-5.25-0.01c-2.6-0.15-3.61,1.01-3.45,3.55
		c0.12,1.99,0.02,3.99,0.02,5.99c0,66.69,0,133.38,0,200.07c0,1.25,0.01,2.5,0,3.75c-0.1,8,1.04,7.17-7.16,7.22
		c-6,0.04-12.01-0.19-17.99,0.08c-3.76,0.17-4.91-1.33-4.54-4.81c0.19-1.73,0.03-3.49,0.03-5.24c0-67.44,0.02-134.88-0.02-202.32
		c0-9.64,1.1-8.22-8.38-8.26c-18.75-0.07-37.49-0.02-56.24-0.02C1377.08,729.33,1374.59,729.33,1371.35,729.33z"/>
	<path class="st1" d="M2833.58,853.19c0,13.98,0.06,27.96-0.03,41.94c-0.03,4.53,0.49,8.98,1.36,13.38
		c1.49,7.51,5.83,12.39,13.42,14.46c8.12,2.22,16.37,1.51,24.59,1.57c9.15,0.06,9.15-0.02,9.16,9.13c0,4.24-0.08,8.49,0.02,12.73
		c0.06,2.5-0.88,3.63-3.47,3.53c-12.21-0.47-24.49,1.06-36.64-1.14c-23.74-4.31-35.18-16.9-37.09-40.98
		c-0.41-5.22-0.44-10.48-0.45-15.72c-0.04-28.21-0.01-56.42-0.04-84.63c-0.01-5.99-0.08-6.02-6.18-6.06
		c-6.5-0.04-13-0.23-19.48,0.07c-3.81,0.18-4.7-1.32-4.56-4.77c0.22-5.23,0.19-10.49,0.01-15.72c-0.12-3.44,0.91-4.95,4.65-4.82
		c6.99,0.25,13.99-0.07,20.98,0.14c3.48,0.1,4.73-1.04,4.97-4.62c0.74-10.7,2.14-21.35,2.77-32.05c0.25-4.18,2.04-4.92,5.57-4.78
		c4.99,0.19,9.99,0,14.99,0.06c5.32,0.07,5.41,0.11,5.44,5.24c0.06,10.24-0.02,20.47,0.04,30.71c0.03,5.23,0.11,5.33,5.4,5.35
		c12.99,0.06,25.98,0,38.98,0.03c6.72,0.01,6.73,0.05,6.77,7.05c0.02,4.49-0.19,9,0.07,13.48c0.2,3.55-0.92,4.77-4.61,4.71
		c-11.99-0.22-23.98-0.08-35.98-0.08c-10.65,0-10.65,0-10.65,10.6C2833.58,825.72,2833.58,839.45,2833.58,853.19z"/>
	<path class="st1" d="M2738.56,823.86c0,39.23,0,78.45,0,117.68c0,1.75-0.08,3.5,0.01,5.25c0.11,2.21-0.88,3.14-3.07,3.13
		c-7.75-0.04-15.5-0.07-23.25,0.02c-2.7,0.03-3.5-1.22-3.32-3.67c0.11-1.49,0.01-3,0.01-4.5c0-78.45-0.01-156.9,0.02-235.35
		c0-9.49-1.19-8.32,8.3-8.41c4.25-0.04,8.5-0.05,12.75,0c9.9,0.12,8.5-1.28,8.54,8.92c0.07,20.99,0.02,41.97,0.02,62.96
		C2738.56,787.88,2738.56,805.87,2738.56,823.86z"/>
	<path class="st1" d="M1305.73,827.73c0-37.93,0-75.86,0-113.8c0-1.75,0.1-3.5-0.02-5.24c-0.17-2.49,0.73-3.65,3.38-3.62
		c7.74,0.1,15.48,0.06,23.23,0.03c2.21-0.01,3.16,1.03,3.09,3.2c-0.06,1.74,0,3.49,0,5.24c0,76.11,0,152.23,0,228.34
		c0,0.25,0,0.5,0,0.75c-0.06,7.67,0.98,7.27-7.2,7.27c-6.24,0-12.49-0.11-18.73,0.04c-2.97,0.07-4.03-1.09-3.78-3.94
		c0.15-1.73,0.03-3.49,0.03-5.24C1305.73,903.09,1305.73,865.41,1305.73,827.73z"/>
	<path class="st1" d="M2925.24,862.77c0-26.69-0.01-53.38,0.01-80.07c0.01-6.41,0.07-6.44,6.59-6.47
		c6.49-0.03,12.98,0.06,19.47-0.03c2.52-0.03,3.71,0.92,3.58,3.48c-0.07,1.49,0,2.99,0,4.49c0,52.63,0,105.26,0,157.89
		c0,1-0.13,2.02,0.02,2.99c0.66,4.1-1.3,5.06-5.05,4.92c-6.48-0.24-12.98-0.01-19.47-0.09c-5.04-0.06-5.12-0.14-5.13-5.56
		c-0.04-20.7-0.02-41.41-0.02-62.11C2925.24,875.74,2925.24,869.26,2925.24,862.77z"/>
	<path class="st1" d="M2012.45,195.17c24.22,0.02,39.92,20.41,32.89,42.73c-5.1,16.21-23.25,25.33-41.91,21.07
		c-19.69-4.5-30.37-23.59-23.8-42.51C1984.17,203.4,1996.87,195.16,2012.45,195.17z"/>
	<path class="st1" d="M2920.01,717.74c0.02-11.3,8.44-19.62,19.92-19.68c11.45-0.06,20.85,9.12,20.59,20.1
		c-0.26,10.9-9.24,19.69-20.26,19.83C2928.71,738.13,2920,729.42,2920.01,717.74z"/>
	<path class="st1" d="M429.63,481.34c0,32.98-0.01,65.96,0,98.94c0.02,55.2-0.58,110.42,0.39,165.6
		c0.45,25.71,4.75,51.19,15.95,74.92c1.27,2.7,2.49,5.47,3.35,8.32c2.02,6.71-0.08,9.82-7.18,10.76c-2.47,0.33-4.99,0.36-7.48,0.35
		c-33.5-0.09-67-0.22-100.5-0.32c-11.25-0.04-22.47,0.72-33.69,1.05c-14.46,0.42-28.96-0.43-43.43-0.85
		c-1.7-0.05-3.41-0.72-5.05-1.27c-1.75-0.59-3.27-1.73-3.1-3.73c0.16-1.89,1.63-2.99,3.4-3.61c3.36-1.17,6.86-1.46,10.35-1.48
		c13.85-0.09,26.76-4.16,38.71-10.53c17.25-9.18,26.97-24.04,29.47-43.48c1.41-10.92,1.63-21.9,1.63-32.89
		c-0.01-163.65,0.01-327.3-0.04-490.95c0-14.97,0.32-30-3.01-44.74c-3.93-17.41-13.72-30.13-30.08-37.8
		c-11.95-5.6-24.29-9.16-37.56-8.97c-3.28,0.05-6.49-0.34-9.62-1.3c-1.96-0.6-3.95-1.52-3.85-3.94c0.1-2.37,2.14-3.29,4.08-3.81
		c1.91-0.51,3.92-0.73,5.9-0.87c20.48-1.46,40.98-0.78,61.48-0.81c65.01-0.11,130.02,0.16,195.03-0.1
		c29.01-0.11,58.16-0.43,86.86,2.88c36.39,4.2,72.84,10.35,105.6,28.63c41.75,23.3,69.49,57.78,82.12,104.08
		c1.72,6.3,2.36,12.73,2.64,19.25c0.57,13.24,0.82,26.51-0.52,39.67c-1.83,17.91-8.14,34.43-18,49.5
		c-9.61,14.68-23.93,21.38-40.89,23.26c-2.72,0.3-5.47,0.06-8.2-0.49c-12.85-2.58-24.94-7.2-36.35-13.58
		c-1.95-1.09-3.83-2.42-5.43-3.96c-3.34-3.21-4.66-7.08-2.68-11.56c1.1-2.51,2.21-5.05,3.68-7.35
		c10.06-15.63,15.07-33.15,18.71-51.05c1.84-9.07,1.68-18.43-0.52-27.54c-2.4-9.95-4.75-19.93-7.68-29.72
		c-6.22-20.75-19.18-37.14-34.96-51.4c-18.31-16.55-39.86-27.24-63.49-34.04c-11.75-3.38-23.29-7.49-35.6-8.58
		c-22.21-1.97-44.43-1.83-66.67-0.93c-12.23,0.49-24.48,0.79-36.5,3.51c-1.7,0.39-3.41,0.78-5.08,1.27
		c-14.69,4.35-21.41,12.94-22.02,28.32c-0.2,4.99-0.14,9.99-0.14,14.99C429.63,310.45,429.63,395.89,429.63,481.34z"/>
	<path class="st1" d="M890.09,556.16c0,29.73,0.01,59.46-0.01,89.19c0,4.74,0.02,9.51-1.49,14.09c-1.08,3.28-2.88,6.02-6.63,6.28
		c-3.69,0.25-6.03-2.1-7.64-5.11c-1.9-3.55-2.75-7.46-3.63-11.37c-5.08-22.71-12.32-44.72-21.5-66.1c-2.17-5.06-4.98-9.81-8.2-14.27
		c-5.55-7.69-11.14-15.37-16.87-22.94c-5.02-6.62-11.11-12.21-17.95-16.89c-12.78-8.74-25.67-17.34-39.45-24.5
		c-23.34-12.14-48.46-16.4-74.43-17.74c-21.25-1.09-41.92,1.69-62.12,7.83c-17.7,5.37-33.05,14.74-46.48,27.77
		c-14.27,13.85-24.18,30.02-28.52,49.18c-4.42,19.55-3.37,38.59,4.53,57.86c8.23,20.07,21.05,36.03,36.17,50.77
		c4.86,4.74,10.46,8.5,16.24,12.01c46.98,28.49,93.94,57.02,140.94,85.47c23.3,14.11,46.44,28.47,68.26,44.82
		c12.21,9.15,24,18.87,34.13,30.31c12.35,13.94,21.87,29.55,27.58,47.54c6.76,21.28,9.73,42.85,7.14,65
		c-4.45,38.09-23.81,65.52-59.31,80.94c-8.92,3.88-17.95,7.57-27.65,9.24c-5.71,0.98-11.46,1.12-17.19,0.73
		c-5.95-0.4-7.65-3.4-4.52-8.51c4.43-7.23,9.28-14.23,14.24-21.12c9.66-13.44,14.04-28.47,14.52-44.88
		c0.52-17.81-5.5-33.39-16.15-47.22c-12.09-15.69-26.02-29.56-42.11-41.32c-28.72-20.99-59.3-38.8-90.79-55.28
		c-17.23-9.02-34.2-18.61-51.1-28.28c-20.42-11.68-39.56-25.26-59.61-37.47c-6.86-4.17-12.74-9.6-18.75-14.89
		c-18.4-16.22-33.29-34.95-44-57.19c-8.28-17.19-11.96-35.45-14.57-53.97c-1.99-14.08-2.42-28.42-0.24-42.57
		c3.74-24.27,8.88-48.17,23.03-69.02c0.56-0.83,1.14-1.65,1.6-2.53c11.3-21.99,29.19-38.19,48.9-51.87
		c23.48-16.29,49.08-29.14,77.83-33.42c18.76-2.8,37.7-4.15,56.78-2.56c12.44,1.04,25.06,0.64,37.31,3.03
		c24.75,4.82,49.37,10.39,73.12,19.02c14.17,5.15,28.65,9.21,43.57,10.55c13.39,1.2,25.21-3.05,32.38-15.72
		c1.48-2.61,2.79-5.34,4.53-7.75c2.55-3.53,5.61-6.67,10.57-5.57c4.97,1.1,6.49,5.2,7.12,9.53c0.5,3.44,0.52,6.97,0.53,10.46
		c0.04,29.48,0.02,58.96,0.02,88.44C890.2,556.16,890.14,556.16,890.09,556.16z"/>
</g>
</svg>
