<?xml version="1.0" standalone="no"?>
<!DOCTYPE svg PUBLIC "-//W3C//DTD SVG 20010904//EN"
 "http://www.w3.org/TR/2001/REC-SVG-20010904/DTD/svg10.dtd">
<svg version="1.0" xmlns="http://www.w3.org/2000/svg"
 width="564.000000pt" height="582.000000pt" viewBox="0 0 564.000000 582.000000"
 preserveAspectRatio="xMidYMid meet">
<g transform="translate(0.000000,582.000000) scale(0.100000,-0.100000)"
fill="#FFFFFF" stroke="#FFFFFF">
<path d="M1250 5615 c-8 -2 -49 -9 -90 -15 -164 -26 -347 -101 -500 -203 -110
-73 -285 -252 -359 -366 -108 -169 -177 -357 -201 -553 -8 -67 -10 -527 -8
-1628 4 -1522 4 -1536 25 -1620 65 -263 161 -443 331 -621 209 -220 459 -352
748 -394 97 -14 280 -15 1644 -12 1688 3 1557 -1 1755 64 389 127 706 449 829
841 58 186 56 130 60 1712 2 800 0 1514 -5 1586 -24 351 -176 662 -436 889
-177 155 -340 240 -573 298 -85 21 -91 21 -1645 23 -858 1 -1567 1 -1575 -1z
m1625 -536 c389 -29 616 -109 798 -279 183 -171 271 -390 252 -630 -15 -193
-77 -325 -183 -388 -41 -23 -57 -27 -127 -27 -64 1 -93 6 -145 28 -61 26 -120
70 -120 90 0 5 18 45 40 88 49 96 82 213 82 289 0 74 -44 237 -85 314 -39 74
-150 189 -232 238 -190 115 -420 158 -737 138 -203 -12 -251 -27 -283 -90 -14
-27 -15 -187 -13 -1462 l3 -1433 23 -72 c12 -40 34 -103 49 -139 19 -49 24
-71 16 -83 -9 -14 -62 -17 -464 -24 -250 -4 -472 -4 -494 1 -30 6 -40 12 -40
27 0 17 12 21 90 32 147 21 242 81 289 182 l21 46 0 1435 c0 1435 0 1435 -21
1480 -49 105 -138 162 -286 181 -45 6 -89 16 -96 21 -22 18 6 37 61 41 130 9
1474 6 1602 -4z m787 -1498 c70 -16 184 -48 255 -71 154 -50 260 -62 314 -36
19 9 49 39 69 69 37 54 68 69 96 47 12 -11 14 -91 14 -529 0 -557 0 -557 -51
-549 -20 3 -27 14 -47 78 -93 306 -117 361 -209 480 -64 82 -113 122 -236 195
-112 67 -210 103 -330 121 -252 39 -496 -21 -640 -156 -192 -180 -218 -427
-68 -649 91 -133 117 -153 581 -434 605 -366 720 -446 837 -580 173 -197 222
-521 112 -738 -74 -147 -287 -276 -441 -267 -40 2 -54 7 -56 20 -2 9 20 52 49
95 90 133 114 229 85 343 -24 92 -57 142 -160 245 -115 114 -249 203 -584 390
-304 168 -542 316 -625 389 -135 117 -239 280 -277 436 -107 436 81 840 485
1043 156 78 266 98 515 92 160 -4 202 -9 312 -34z"/>
</g>
</svg>
